<?xml version="1.0" encoding="UTF-8"?>
<svg version="1.1" xmlns="http://www.w3.org/2000/svg" width="297" height="297">
<path d="M0 0 C98.01 0 196.02 0 297 0 C297 98.01 297 196.02 297 297 C198.99 297 100.98 297 0 297 C0 198.99 0 100.98 0 0 Z " fill="#F3F2EE" transform="translate(0,0)"/>
<path d="M0 0 C10.828125 -0.12375 10.828125 -0.12375 21.875 -0.25 C25.26241455 -0.30462402 25.26241455 -0.30462402 28.71826172 -0.36035156 C30.53872736 -0.3720506 32.35920358 -0.38223954 34.1796875 -0.390625 C35.56039429 -0.4213208 35.56039429 -0.4213208 36.96899414 -0.45263672 C44.21680683 -0.45647662 51.49081135 0.740629 56.97921753 5.83831787 C61.75291749 11.22528107 62.29188929 14.84964205 62.21484375 22.0234375 C61.75241765 28.43014095 58.06770178 32.38260878 54 37 C54.53109375 37.27972656 55.0621875 37.55945313 55.609375 37.84765625 C59.6808802 40.15830975 63.24000444 42.36100684 65.37109375 46.71875 C67.02905428 52.73271863 67.22628685 59.56531161 65.1171875 65.47265625 C61.45184715 71.77170141 56.23562535 76.64220782 49.16436768 78.58456421 C44.82518115 79.41744182 40.43740879 79.24132213 36.03515625 79.1953125 C35.11827026 79.19329834 34.20138428 79.19128418 33.25671387 79.18920898 C29.85859109 79.17880987 26.46054008 79.15088765 23.0625 79.125 C15.451875 79.08375 7.84125 79.0425 0 79 C0 52.93 0 26.86 0 0 Z " fill="#11110F" transform="translate(115,105)"/>
<path d="M0 0 C3.84348723 3.4940793 6.59190831 7.76380428 7.31640625 12.96875 C7.33203125 14.8984375 7.33203125 14.8984375 7.01953125 17.8359375 C3.3456563 18.68892126 -0.02520805 18.94383221 -3.79296875 18.8984375 C-4.76878906 18.88941406 -5.74460937 18.88039062 -6.75 18.87109375 C-7.85408203 18.85369141 -7.85408203 18.85369141 -8.98046875 18.8359375 C-9.35171875 17.7428125 -9.72296875 16.6496875 -10.10546875 15.5234375 C-11.33352081 12.74060393 -11.98547813 11.83205523 -14.48046875 9.8984375 C-21.31504052 7.82365678 -28.37896129 7.98123157 -34.98046875 10.8359375 C-35.48172158 14.16736028 -35.48172158 14.16736028 -34.98046875 17.8359375 C-30.23690649 21.92706805 -25.2486991 22.97864524 -19.23046875 24.2734375 C-7.95541342 26.9253729 1.34721544 29.70102048 8.01953125 39.8359375 C10.40992122 45.55208742 11.28142651 52.03660961 9.296875 58.01171875 C6.31910035 64.41333145 1.46082126 69.70727188 -4.9609375 72.78515625 C-15.73412217 76.38892953 -29.55773636 76.70380498 -39.98046875 71.8359375 C-46.90538485 68.23006403 -50.37530569 62.73419065 -53.29296875 55.6484375 C-53.9628155 52.90815534 -54.03228917 50.63895116 -53.98046875 47.8359375 C-48.6001985 46.64504764 -43.52755491 45.5439856 -37.98046875 45.8359375 C-37.74263672 46.74085938 -37.74263672 46.74085938 -37.5 47.6640625 C-35.99357118 52.82420541 -34.83188208 55.99608579 -29.98046875 58.8359375 C-24.46366093 60.52289526 -18.51752241 60.7002005 -13.10546875 58.5859375 C-10.02251324 56.85948241 -8.5115057 55.98807239 -6.98046875 52.8359375 C-6.39701399 49.79340242 -6.39701399 49.79340242 -6.98046875 46.8359375 C-9.98386447 43.98217874 -13.04198933 43.05378292 -16.99609375 42.00390625 C-18.16527344 41.67970703 -19.33445313 41.35550781 -20.5390625 41.02148438 C-22.98249679 40.36085214 -25.42780262 39.7071001 -27.875 39.06054688 C-37.190836 36.45804384 -45.16544152 32.98529897 -50.1328125 24.24609375 C-52.30550749 18.06843104 -52.11097539 11.32305211 -49.41796875 5.3984375 C-36.63511982 -8.03994214 -15.67551566 -11.25562421 0 0 Z " fill="#131311" transform="translate(266.98046875,110.1640625)"/>
<path d="M0 0 C4.95 0 9.9 0 15 0 C15 21.78 15 43.56 15 66 C28.2 66 41.4 66 55 66 C55 70.29 55 74.58 55 79 C36.85 79 18.7 79 0 79 C0 52.93 0 26.86 0 0 Z " fill="#0F0F0D" transform="translate(27,105)"/>
<path d="M0 0 C4.20902296 -0.10807762 8.41526202 -0.1873684 12.625 -0.25 C14.40970703 -0.30027344 14.40970703 -0.30027344 16.23046875 -0.3515625 C27.2834801 -0.47505983 27.2834801 -0.47505983 32 4 C34.45917586 7.6887638 34.81591937 10.7184429 34 15 C32.25549494 18.0220794 30.16697836 20.41651082 27 22 C24.96767366 22.08527628 22.93252994 22.10716135 20.8984375 22.09765625 C19.68671875 22.09443359 18.475 22.09121094 17.2265625 22.08789062 C15.95554688 22.07951172 14.68453125 22.07113281 13.375 22.0625 C12.09625 22.05798828 10.8175 22.05347656 9.5 22.04882812 C6.33331355 22.03701213 3.16665104 22.01907621 0 22 C0 14.74 0 7.48 0 0 Z " fill="#EDECE8" transform="translate(131,149)"/>
<path d="M0 0 C4.04278926 -0.13516012 8.08104554 -0.23421548 12.125 -0.3125 C13.83816406 -0.3753418 13.83816406 -0.3753418 15.5859375 -0.43945312 C25.0930701 -0.57763819 25.0930701 -0.57763819 28.76171875 2.30078125 C31 5 31 5 31.6875 8.5 C30.8403214 12.81290923 29.3720891 14.27021358 26 17 C23.39048764 18.30475618 21.47298715 18.11301572 18.5546875 18.09765625 C16.94013672 18.09282227 16.94013672 18.09282227 15.29296875 18.08789062 C14.16503906 18.07951172 13.03710938 18.07113281 11.875 18.0625 C10.73933594 18.05798828 9.60367188 18.05347656 8.43359375 18.04882812 C5.62237353 18.03701628 2.81118028 18.01908041 0 18 C0 12.06 0 6.12 0 0 Z " fill="#EDECE8" transform="translate(131,118)"/>
</svg>
